<svg width="76" height="76" viewBox="0 0 76 76" fill="none" xmlns="http://www.w3.org/2000/svg">
<circle cx="38" cy="38" r="38" fill="#E4E4E4"/>
<path fill-rule="evenodd" clip-rule="evenodd" d="M37.8701 31.503H40.5001C40.7653 31.503 41.0196 31.3976 41.2072 31.2101C41.3947 31.0226 41.5001 30.7682 41.5001 30.503C41.5001 30.2378 41.3947 29.9834 41.2072 29.7959C41.0196 29.6083 40.7653 29.503 40.5001 29.503H37.8701C37.5211 29.503 37.1151 29.56 36.7201 29.753C35.2961 30.448 34.4901 31.65 34.0471 32.821C33.8971 33.216 33.7861 33.616 33.7041 34.003H35.7621C35.8071 33.843 35.8581 33.685 35.9171 33.528C36.2391 32.676 36.7621 31.958 37.5971 31.55C37.6838 31.5143 37.7774 31.4983 37.8711 31.503H37.8701ZM32.0001 35.003C31.4481 35.003 30.9871 35.459 31.1371 35.991C31.7141 38.05 34.0631 39.652 37.0001 39.952V41.51C36.3051 41.527 35.5831 41.583 34.9701 41.761C34.4921 41.901 33.9851 42.139 33.5971 42.575C33.1911 43.031 33.0001 43.607 33.0001 44.25C33.0001 44.893 33.1901 45.47 33.5961 45.927C33.9841 46.364 34.4911 46.604 34.9701 46.744C35.2901 46.837 35.6401 46.897 36.0001 46.935V44.922C35.8413 44.9004 35.6842 44.8677 35.5301 44.824C35.2601 44.744 35.1411 44.656 35.0921 44.6C35.0601 44.564 35.0001 44.483 35.0001 44.25C35.0001 44.02 35.0601 43.94 35.0901 43.905C35.1401 43.849 35.2581 43.76 35.5301 43.681C35.9131 43.57 36.4071 43.528 37.0001 43.512V49.003H34.0001V51.003H42.0001V49.003H39.0001V43.466C40.1021 43.38 40.9951 43.138 41.6671 42.705C42.6121 42.095 43.0001 41.188 43.0001 40.225C43.008 39.7107 42.8804 39.2033 42.6301 38.754C43.7541 38.044 44.5571 37.082 44.8631 35.991C45.0131 35.459 44.5531 35.003 44.0001 35.003H32.0001ZM40.5831 41.023C40.3001 41.206 39.8091 41.38 39.0001 41.458V39.952C39.6007 39.8918 40.1939 39.7725 40.7711 39.596C40.9361 39.753 41.0001 39.944 41.0001 40.226C41.0001 40.596 40.8881 40.827 40.5831 41.023Z" fill="black"/>
<path fill-rule="evenodd" clip-rule="evenodd" d="M46 47H56V31H46V21H30V31H20V47H30V57H46V47ZM44 55V45H54V33H44V23H32V33H22V45H32V55H44Z" fill="black"/>
</svg>
