<svg width="76" height="76" viewBox="0 0 76 76" fill="none" xmlns="http://www.w3.org/2000/svg">
<circle cx="38" cy="38" r="38" fill="#E4E4E4"/>
<path fill-rule="evenodd" clip-rule="evenodd" d="M18 57C18 56.7348 18.1317 56.4804 18.3661 56.2929C18.6005 56.1054 18.9185 56 19.25 56H56.75C57.0815 56 57.3995 56.1054 57.6339 56.2929C57.8683 56.4804 58 56.7348 58 57C58 57.2652 57.8683 57.5196 57.6339 57.7071C57.3995 57.8946 57.0815 58 56.75 58H19.25C18.9185 58 18.6005 57.8946 18.3661 57.7071C18.1317 57.5196 18 57.2652 18 57ZM31.75 22H20.5V20H31.75V22ZM55.5 22H44.25V20H55.5V22ZM31.75 25H23V23H31.75V25ZM53 25H44.25V23H53V25ZM48 52H28V50H48V52Z" fill="black"/>
<path fill-rule="evenodd" clip-rule="evenodd" d="M44.25 18H31.75C31.087 18 30.4511 18.2107 29.9822 18.5858C29.5134 18.9609 29.25 19.4696 29.25 20V30C29.25 30.5304 29.5134 31.0391 29.9822 31.4142C30.4511 31.7893 31.087 32 31.75 32H44.25C44.913 32 45.5489 31.7893 46.0178 31.4142C46.4866 31.0391 46.75 30.5304 46.75 30V20C46.75 19.4696 46.4866 18.9609 46.0178 18.5858C45.5489 18.2107 44.913 18 44.25 18ZM39.25 21V24H43V26H39.25V29H36.75V26H33V24H36.75V21H39.25Z" fill="black"/>
<path fill-rule="evenodd" clip-rule="evenodd" d="M40.5 20V23H44.25V27H40.5V30H35.5V27H31.75V23H35.5V20H40.5ZM36.75 24H33V26H36.75V29H39.25V26H43V24H39.25V21H36.75V24ZM44.25 19H31.75C31.4185 19 31.1005 19.1054 30.8661 19.2929C30.6317 19.4804 30.5 19.7348 30.5 20V30C30.5 30.2652 30.6317 30.5196 30.8661 30.7071C31.1005 30.8946 31.4185 31 31.75 31H44.25C44.5815 31 44.8995 30.8946 45.1339 30.7071C45.3683 30.5196 45.5 30.2652 45.5 30V20C45.5 19.7348 45.3683 19.4804 45.1339 19.2929C44.8995 19.1054 44.5815 19 44.25 19ZM31.75 18H44.25C44.913 18 45.5489 18.2107 46.0178 18.5858C46.4866 18.9609 46.75 19.4696 46.75 20V30C46.75 30.5304 46.4866 31.0391 46.0178 31.4142C45.5489 31.7893 44.913 32 44.25 32H31.75C31.087 32 30.4511 31.7893 29.9822 31.4142C29.5134 31.0391 29.25 30.5304 29.25 30V20C29.25 19.4696 29.5134 18.9609 29.9822 18.5858C30.4511 18.2107 31.087 18 31.75 18Z" fill="black"/>
<path d="M28 34H33V37H28V34ZM28 39H33V42H28V39ZM28 44H33V47H28V44ZM35.5 34H40.5V37H35.5V34ZM35.5 39H40.5V42H35.5V39ZM35.5 44H40.5V47H35.5V44ZM43 34H48V37H43V34ZM43 39H48V42H43V39ZM43 44H48V47H43V44Z" fill="black"/>
<path fill-rule="evenodd" clip-rule="evenodd" d="M23 56V21H25.5V56H23ZM50.5 56V21H53V56H50.5ZM36.75 50H29.25V56H36.75V50ZM39.25 50V56H46.75V50H39.25Z" fill="black"/>
<path fill-rule="evenodd" clip-rule="evenodd" d="M44.25 56V52H46.75V56H44.25ZM29.25 56V52H31.75V56H29.25Z" fill="black"/>
</svg>
