<svg width="76" height="76" viewBox="0 0 76 76" fill="none" xmlns="http://www.w3.org/2000/svg">
<circle cx="38" cy="38" r="38" fill="#E4E4E4"/>
<path d="M24.6667 40.6667C25.5871 40.6667 26.3333 39.9205 26.3333 39C26.3333 38.0795 25.5871 37.3333 24.6667 37.3333C23.7462 37.3333 23 38.0795 23 39C23 39.9205 23.7462 40.6667 24.6667 40.6667Z" stroke="black" stroke-width="2"/>
<path d="M38 40.6667C38.9205 40.6667 39.6667 39.9205 39.6667 39C39.6667 38.0795 38.9205 37.3333 38 37.3333C37.0796 37.3333 36.3334 38.0795 36.3334 39C36.3334 39.9205 37.0796 40.6667 38 40.6667Z" stroke="black" stroke-width="2"/>
<path d="M51.3333 40.6667C52.2538 40.6667 53 39.9205 53 39C53 38.0795 52.2538 37.3333 51.3333 37.3333C50.4128 37.3333 49.6666 38.0795 49.6666 39C49.6666 39.9205 50.4128 40.6667 51.3333 40.6667Z" stroke="black" stroke-width="2"/>
</svg>
