<svg width="76" height="76" viewBox="0 0 76 76" fill="none" xmlns="http://www.w3.org/2000/svg">
<circle cx="38" cy="38" r="38" fill="#E4E4E4"/>
<path fill-rule="evenodd" clip-rule="evenodd" d="M37.56 26.126C37.759 25.969 46.08 19.496 51.58 25.873C54.6 29.373 54.344 33.006 53.224 36.563L49.282 47.856C48.129 51.783 47.307 52.996 45.287 54.701C44.089 55.714 42.737 53.965 41.314 52.124C40.081 50.529 38.795 48.866 37.51 48.87C36.203 48.874 34.896 50.54 33.646 52.134C32.205 53.972 30.838 55.715 29.633 54.701C27.2 52.653 26.133 49.824 25.017 45.283C24.802 44.409 24.476 43.36 24.115 42.203C22.605 37.354 20.503 30.608 23.585 26.866C27.392 22.244 32.12 21.5 37.509 26.089L37.559 26.126H37.56ZM34.9 26.6C33.036 25.32 31.45 24.912 30.13 25.016C28.509 25.143 26.824 26.079 25.13 28.137C23.854 29.685 23.725 32.299 24.412 35.715C24.739 37.342 25.217 38.989 25.698 40.554C25.801 40.892 25.907 41.23 26.011 41.565C26.376 42.735 26.728 43.866 26.959 44.805C27.98 48.963 28.869 51.197 30.48 52.771C30.813 52.461 31.233 51.965 31.79 51.26L32.06 50.916C32.63 50.189 33.305 49.326 33.994 48.636C34.726 47.905 35.935 46.874 37.504 46.87C39.08 46.865 40.286 47.912 41.003 48.639C41.682 49.328 42.348 50.19 42.91 50.918L43.177 51.263C43.722 51.963 44.135 52.459 44.462 52.768C45.109 52.182 45.529 51.693 45.892 51.085C46.362 50.3 46.799 49.212 47.362 47.293L47.393 47.197L51.325 35.934C51.839 34.294 52.1 32.797 51.965 31.39C51.831 30.02 51.312 28.623 50.066 27.179C48.002 24.785 45.466 24.749 43.072 25.49C41.867 25.864 40.786 26.42 39.994 26.896C39.696 27.074 39.446 27.237 39.252 27.37L43.092 30.194C43.3057 30.351 43.4484 30.5865 43.4885 30.8487C43.5286 31.1109 43.463 31.3782 43.306 31.592C43.149 31.8058 42.9135 31.9484 42.6513 31.9885C42.3891 32.0287 42.1217 31.963 41.908 31.806L36.483 27.816C36.4072 27.7679 36.3347 27.7148 36.266 27.657L35.108 26.806C35.0289 26.748 34.9588 26.6785 34.9 26.6ZM30.13 53.045L30.133 53.043L30.129 53.045H30.13Z" fill="black"/>
</svg>
