<svg width="76" height="76" viewBox="0 0 76 76" fill="none" xmlns="http://www.w3.org/2000/svg">
<circle cx="38" cy="38" r="38" fill="#E4E4E4"/>
<path d="M38 19.3333L38.5973 18.1413C38.4119 18.0484 38.2074 18 38 18C37.7926 18 37.5881 18.0484 37.4027 18.1413L38 19.3333ZM22 27.3333L21.4027 26.1413C21.1815 26.2522 20.9955 26.4224 20.8655 26.6329C20.7355 26.8434 20.6667 27.0859 20.6667 27.3333H22ZM54 27.3333H55.3333C55.3333 27.0859 55.2645 26.8434 55.1345 26.6329C55.0045 26.4224 54.8185 26.2522 54.5973 26.1413L54 27.3333ZM32.6667 46V44.6667H31.3333V46H32.6667ZM43.3333 46H44.6667V44.6667H43.3333V46ZM18 58H58V55.3333H18V58ZM37.4027 18.1413L21.4027 26.1413L22.5973 28.5253L38.5973 20.5253L37.4027 18.1413ZM54.5973 26.1413L38.5973 18.1413L37.4027 20.5253L53.4027 28.5253L54.5973 26.1413ZM36.6667 26V32.6667H39.3333V26H36.6667ZM36.6667 32.6667V39.3333H39.3333V32.6667H36.6667ZM31.3333 34H38V31.3333H31.3333V34ZM38 34H44.6667V31.3333H38V34ZM20.6667 27.3333V56.6667H23.3333V27.3333H20.6667ZM52.6667 27.3333V56.6667H55.3333V27.3333H52.6667ZM34 56.6667V46H31.3333V56.6667H34ZM32.6667 47.3333H43.3333V44.6667H32.6667V47.3333ZM42 46V56.6667H44.6667V46H42Z" fill="black"/>
</svg>
