<svg width="76" height="76" viewBox="0 0 76 76" fill="none" xmlns="http://www.w3.org/2000/svg">
<circle cx="38" cy="38" r="38" fill="#E4E4E4"/>
<path fill-rule="evenodd" clip-rule="evenodd" d="M27.1162 27.1485C27.1739 26.4191 27.3615 25.7267 27.6544 25.0939H20V27.6427L24.0548 30.7555V58H52.4384V30.7914L57 27.6786V25.0929H38.7017C38.9957 25.7257 39.1822 26.4181 39.241 27.1475H54.1485L50.411 29.6994V55.9443H26.0822V29.7353L22.7127 27.1485H27.1152H27.1162Z" fill="black"/>
<path fill-rule="evenodd" clip-rule="evenodd" d="M34.1918 41.5464H30.137V45.6557H34.1918V41.5464ZM28.1096 39.4918V47.7104H36.2192V39.4918H28.1096ZM46.3562 41.5464H40.274V55.9289H46.3562V41.5464ZM38.2466 39.4918V57.9836H48.3836V39.4918H38.2466Z" fill="black"/>
<path d="M20 56.9562C20 57.2287 20.1068 57.49 20.2969 57.6827C20.487 57.8753 20.7448 57.9836 21.0137 57.9836H55.4795C55.7483 57.9836 56.0061 57.8753 56.1962 57.6827C56.3863 57.49 56.4931 57.2287 56.4931 56.9562C56.4931 56.6838 56.3863 56.4225 56.1962 56.2298C56.0061 56.0372 55.7483 55.9289 55.4795 55.9289H21.0137C20.7448 55.9289 20.487 56.0372 20.2969 56.2298C20.1068 56.4225 20 56.6838 20 56.9562Z" fill="black"/>
<path fill-rule="evenodd" clip-rule="evenodd" d="M29.1232 31.2732H24.0547V29.2186H29.1232V31.2732ZM51.9314 31.2732H37.2328V29.2186H51.9314V31.2732Z" fill="black"/>
<path fill-rule="evenodd" clip-rule="evenodd" d="M39.2603 27.1639C39.2603 27.9734 39.103 28.7749 38.7974 29.5228C38.4917 30.2706 38.0437 30.9501 37.4789 31.5225C36.9141 32.0949 36.2436 32.5489 35.5057 32.8587C34.7678 33.1684 33.9769 33.3279 33.1781 33.3279C32.3794 33.3279 31.5885 33.1684 30.8506 32.8587C30.1127 32.5489 29.4422 32.0949 28.8774 31.5225C28.3126 30.9501 27.8646 30.2706 27.5589 29.5228C27.2533 28.7749 27.0959 27.9734 27.0959 27.1639C27.0959 25.5292 27.7367 23.9613 28.8774 22.8054C30.018 21.6494 31.565 21 33.1781 21C34.7912 21 36.3383 21.6494 37.4789 22.8054C38.6195 23.9613 39.2603 25.5292 39.2603 27.1639ZM34.1918 24.082V26.1366H36.2192V28.1912H34.1918V30.2459H32.1644V28.1912H30.137V26.1366H32.1644V24.082H34.1918Z" fill="black"/>
</svg>
