<svg width="28" height="26" viewBox="0 0 28 26" fill="none" xmlns="http://www.w3.org/2000/svg">
<path d="M21.416 25.7467C21.1999 25.7461 20.9871 25.693 20.796 25.592L14 22.0187L7.204 25.592C6.98396 25.7073 6.73608 25.7588 6.48831 25.7407C6.24055 25.7227 6.00276 25.6358 5.80176 25.4898C5.60075 25.3438 5.44452 25.1446 5.35068 24.9146C5.25685 24.6846 5.22913 24.4329 5.27067 24.188L6.568 16.62L1.06934 11.26C0.891456 11.0863 0.765675 10.8664 0.706196 10.625C0.646717 10.3836 0.655908 10.1304 0.732733 9.89396C0.809558 9.65752 0.950957 9.44727 1.14096 9.28695C1.33097 9.12663 1.56201 9.02262 1.808 8.98667L9.40667 7.88267L12.8053 0.997337C12.9278 0.789124 13.1025 0.616503 13.3121 0.496566C13.5218 0.37663 13.7591 0.313538 14.0007 0.313538C14.2422 0.313538 14.4796 0.37663 14.6892 0.496566C14.8989 0.616503 15.0736 0.789124 15.196 0.997337L18.5933 7.88267L26.192 8.98667C26.438 9.02262 26.669 9.12663 26.859 9.28695C27.049 9.44727 27.1904 9.65752 27.2673 9.89396C27.3441 10.1304 27.3533 10.3836 27.2938 10.625C27.2343 10.8664 27.1086 11.0863 26.9307 11.26L21.432 16.62L22.7307 24.188C22.7635 24.3793 22.7541 24.5755 22.7032 24.7628C22.6524 24.9501 22.5612 25.124 22.4361 25.2725C22.3111 25.4209 22.1551 25.5402 21.9791 25.6222C21.8032 25.7041 21.6114 25.7465 21.4173 25.7467H21.416Z" fill="#FF3300" fill-opacity="0.75"/>
</svg>
