<svg width="129" height="50" viewBox="0 0 129 50" fill="none" xmlns="http://www.w3.org/2000/svg">
<g clip-path="url(#clip0_31824_52)">
<path d="M18.75 15.375C19.1644 15.375 19.5618 15.5396 19.8549 15.8326C20.1479 16.1257 20.3125 16.5231 20.3125 16.9375V21.625H25C25.4144 21.625 25.8118 21.7896 26.1049 22.0826C26.3979 22.3757 26.5625 22.7731 26.5625 23.1875C26.5625 23.6019 26.3979 23.9993 26.1049 24.2924C25.8118 24.5854 25.4144 24.75 25 24.75H20.3125V29.4375C20.3125 29.8519 20.1479 30.2493 19.8549 30.5424C19.5618 30.8354 19.1644 31 18.75 31C18.3356 31 17.9382 30.8354 17.6451 30.5424C17.3521 30.2493 17.1875 29.8519 17.1875 29.4375V24.75H12.5C12.0856 24.75 11.6882 24.5854 11.3951 24.2924C11.1021 23.9993 10.9375 23.6019 10.9375 23.1875C10.9375 22.7731 11.1021 22.3757 11.3951 22.0826C11.6882 21.7896 12.0856 21.625 12.5 21.625H17.1875V16.9375C17.1875 16.5231 17.3521 16.1257 17.6451 15.8326C17.9382 15.5396 18.3356 15.375 18.75 15.375ZM37.5 24.75C37.5 33.7312 27.8219 43.55 22.3719 48.3687C21.3754 49.2587 20.0861 49.7506 18.75 49.7506C17.4139 49.7506 16.1247 49.2587 15.1281 48.3687C9.67813 43.55 0 33.7312 0 24.75C-3.66909e-08 22.2877 0.484983 19.8495 1.42726 17.5747C2.36953 15.2998 3.75065 13.2328 5.49175 11.4917C7.23285 9.75065 9.29983 8.36953 11.5747 7.42726C13.8495 6.48498 16.2877 6 18.75 6C21.2123 6 23.6505 6.48498 25.9253 7.42726C28.2002 8.36953 30.2672 9.75065 32.0083 11.4917C33.7493 13.2328 35.1305 15.2998 36.0727 17.5747C37.015 19.8495 37.5 22.2877 37.5 24.75ZM34.375 24.75C34.375 20.606 32.7288 16.6317 29.7985 13.7015C26.8683 10.7712 22.894 9.125 18.75 9.125C14.606 9.125 10.6317 10.7712 7.70146 13.7015C4.7712 16.6317 3.125 20.606 3.125 24.75C3.125 28.2125 5.04688 32.2344 8.03125 36.2594C10.95 40.1906 14.5531 43.6875 17.1969 46.0281C17.6223 46.4137 18.1759 46.6273 18.75 46.6273C19.3241 46.6273 19.8777 46.4137 20.3031 46.0281C22.9469 43.6875 26.5531 40.1937 29.4688 36.2594C32.4531 32.2344 34.375 28.2125 34.375 24.75Z" fill="black"/>
</g>
<path d="M54.616 18.82V21.052H47.536V25.972H53.056V28.204H47.536V35.5H44.8V18.82H54.616ZM56.9596 28.828C56.9596 27.5 57.2316 26.324 57.7756 25.3C58.3356 24.276 59.0876 23.484 60.0316 22.924C60.9916 22.348 62.0476 22.06 63.1996 22.06C64.2396 22.06 65.1436 22.268 65.9116 22.684C66.6956 23.084 67.3196 23.588 67.7836 24.196V22.276H70.5436V35.5H67.7836V33.532C67.3196 34.156 66.6876 34.676 65.8876 35.092C65.0876 35.508 64.1756 35.716 63.1516 35.716C62.0156 35.716 60.9756 35.428 60.0316 34.852C59.0876 34.26 58.3356 33.444 57.7756 32.404C57.2316 31.348 56.9596 30.156 56.9596 28.828ZM67.7836 28.876C67.7836 27.964 67.5916 27.172 67.2076 26.5C66.8396 25.828 66.3516 25.316 65.7436 24.964C65.1356 24.612 64.4796 24.436 63.7756 24.436C63.0716 24.436 62.4156 24.612 61.8076 24.964C61.1996 25.3 60.7036 25.804 60.3196 26.476C59.9516 27.132 59.7676 27.916 59.7676 28.828C59.7676 29.74 59.9516 30.54 60.3196 31.228C60.7036 31.916 61.1996 32.444 61.8076 32.812C62.4316 33.164 63.0876 33.34 63.7756 33.34C64.4796 33.34 65.1356 33.164 65.7436 32.812C66.3516 32.46 66.8396 31.948 67.2076 31.276C67.5916 30.588 67.7836 29.788 67.7836 28.876ZM79.6572 35.716C78.6172 35.716 77.6812 35.532 76.8492 35.164C76.0332 34.78 75.3852 34.268 74.9052 33.628C74.4252 32.972 74.1692 32.244 74.1372 31.444H76.9692C77.0172 32.004 77.2812 32.476 77.7612 32.86C78.2572 33.228 78.8732 33.412 79.6092 33.412C80.3772 33.412 80.9692 33.268 81.3852 32.98C81.8172 32.676 82.0332 32.292 82.0332 31.828C82.0332 31.332 81.7932 30.964 81.3132 30.724C80.8492 30.484 80.1052 30.22 79.0812 29.932C78.0892 29.66 77.2812 29.396 76.6572 29.14C76.0332 28.884 75.4892 28.492 75.0252 27.964C74.5772 27.436 74.3532 26.74 74.3532 25.876C74.3532 25.172 74.5612 24.532 74.9772 23.956C75.3932 23.364 75.9852 22.9 76.7532 22.564C77.5372 22.228 78.4332 22.06 79.4412 22.06C80.9452 22.06 82.1532 22.444 83.0652 23.212C83.9932 23.964 84.4892 24.996 84.5532 26.308H81.8172C81.7692 25.716 81.5292 25.244 81.0972 24.892C80.6652 24.54 80.0812 24.364 79.3452 24.364C78.6252 24.364 78.0732 24.5 77.6892 24.772C77.3052 25.044 77.1132 25.404 77.1132 25.852C77.1132 26.204 77.2412 26.5 77.4972 26.74C77.7532 26.98 78.0652 27.172 78.4332 27.316C78.8012 27.444 79.3452 27.612 80.0652 27.82C81.0252 28.076 81.8092 28.34 82.4172 28.612C83.0412 28.868 83.5772 29.252 84.0252 29.764C84.4732 30.276 84.7052 30.956 84.7212 31.804C84.7212 32.556 84.5132 33.228 84.0972 33.82C83.6812 34.412 83.0892 34.876 82.3212 35.212C81.5692 35.548 80.6812 35.716 79.6572 35.716ZM93.6295 28.9L99.7255 35.5H96.0295L91.1335 29.812V35.5H88.3975V17.74H91.1335V28.06L95.9335 22.276H99.7255L93.6295 28.9ZM114.527 28.564C114.527 29.06 114.495 29.508 114.431 29.908H104.327C104.407 30.964 104.799 31.812 105.503 32.452C106.207 33.092 107.071 33.412 108.095 33.412C109.567 33.412 110.607 32.796 111.215 31.564H114.167C113.767 32.78 113.039 33.78 111.983 34.564C110.943 35.332 109.647 35.716 108.095 35.716C106.831 35.716 105.695 35.436 104.687 34.876C103.695 34.3 102.911 33.5 102.335 32.476C101.775 31.436 101.495 30.236 101.495 28.876C101.495 27.516 101.767 26.324 102.311 25.3C102.871 24.26 103.647 23.46 104.639 22.9C105.647 22.34 106.799 22.06 108.095 22.06C109.343 22.06 110.455 22.332 111.431 22.876C112.407 23.42 113.167 24.188 113.711 25.18C114.255 26.156 114.527 27.284 114.527 28.564ZM111.671 27.7C111.655 26.692 111.295 25.884 110.591 25.276C109.887 24.668 109.015 24.364 107.975 24.364C107.031 24.364 106.223 24.668 105.551 25.276C104.879 25.868 104.479 26.676 104.351 27.7H111.671ZM122.739 35.716C121.699 35.716 120.763 35.532 119.931 35.164C119.115 34.78 118.467 34.268 117.987 33.628C117.507 32.972 117.251 32.244 117.219 31.444H120.051C120.099 32.004 120.363 32.476 120.843 32.86C121.339 33.228 121.955 33.412 122.691 33.412C123.459 33.412 124.051 33.268 124.467 32.98C124.899 32.676 125.115 32.292 125.115 31.828C125.115 31.332 124.875 30.964 124.395 30.724C123.931 30.484 123.187 30.22 122.163 29.932C121.171 29.66 120.363 29.396 119.739 29.14C119.115 28.884 118.571 28.492 118.107 27.964C117.659 27.436 117.435 26.74 117.435 25.876C117.435 25.172 117.643 24.532 118.059 23.956C118.475 23.364 119.067 22.9 119.835 22.564C120.619 22.228 121.515 22.06 122.523 22.06C124.027 22.06 125.235 22.444 126.147 23.212C127.075 23.964 127.571 24.996 127.635 26.308H124.899C124.851 25.716 124.611 25.244 124.179 24.892C123.747 24.54 123.163 24.364 122.427 24.364C121.707 24.364 121.155 24.5 120.771 24.772C120.387 25.044 120.195 25.404 120.195 25.852C120.195 26.204 120.323 26.5 120.579 26.74C120.835 26.98 121.147 27.172 121.515 27.316C121.883 27.444 122.427 27.612 123.147 27.82C124.107 28.076 124.891 28.34 125.499 28.612C126.123 28.868 126.659 29.252 127.107 29.764C127.555 30.276 127.787 30.956 127.803 31.804C127.803 32.556 127.595 33.228 127.179 33.82C126.763 34.412 126.171 34.876 125.403 35.212C124.651 35.548 123.763 35.716 122.739 35.716Z" fill="#29A867"/>
<defs>
<clipPath id="clip0_31824_52">
<rect width="50" height="50" fill="white"/>
</clipPath>
</defs>
</svg>
