<svg width="129" height="129" viewBox="0 0 129 129" fill="none" xmlns="http://www.w3.org/2000/svg">
<rect x="1.5" y="1.5" width="126" height="126" rx="63" fill="white" stroke="url(#paint0_linear_31847_21)" stroke-width="3"/>
<path d="M64.5 35.375C64.9089 35.375 65.301 35.5396 65.5901 35.8326C65.8792 36.1257 66.0417 36.5231 66.0417 36.9375V41.625H70.6667C71.0755 41.625 71.4677 41.7896 71.7568 42.0826C72.0459 42.3757 72.2083 42.7731 72.2083 43.1875C72.2083 43.6019 72.0459 43.9993 71.7568 44.2924C71.4677 44.5854 71.0755 44.75 70.6667 44.75H66.0417V49.4375C66.0417 49.8519 65.8792 50.2493 65.5901 50.5424C65.301 50.8354 64.9089 51 64.5 51C64.0911 51 63.699 50.8354 63.4099 50.5424C63.1208 50.2493 62.9583 49.8519 62.9583 49.4375V44.75H58.3333C57.9245 44.75 57.5323 44.5854 57.2432 44.2924C56.9541 43.9993 56.7917 43.6019 56.7917 43.1875C56.7917 42.7731 56.9541 42.3757 57.2432 42.0826C57.5323 41.7896 57.9245 41.625 58.3333 41.625H62.9583V36.9375C62.9583 36.5231 63.1208 36.1257 63.4099 35.8326C63.699 35.5396 64.0911 35.375 64.5 35.375ZM83 44.75C83 53.7312 73.4509 63.55 68.0736 68.3687C67.0903 69.2587 65.8182 69.7506 64.5 69.7506C63.1818 69.7506 61.9097 69.2587 60.9264 68.3687C55.5491 63.55 46 53.7312 46 44.75C46 42.2877 46.4785 39.8495 47.4082 37.5747C48.3379 35.2998 49.7006 33.2328 51.4185 31.4917C53.1364 29.7506 55.1758 28.3695 57.4204 27.4273C59.6649 26.485 62.0705 26 64.5 26C66.9295 26 69.3351 26.485 71.5796 27.4273C73.8242 28.3695 75.8636 29.7506 77.5815 31.4917C79.2994 33.2328 80.6621 35.2998 81.5918 37.5747C82.5215 39.8495 83 42.2877 83 44.75ZM79.9167 44.75C79.9167 40.606 78.2924 36.6317 75.4012 33.7015C72.51 30.7712 68.5888 29.125 64.5 29.125C60.4112 29.125 56.49 30.7712 53.5988 33.7015C50.7076 36.6317 49.0833 40.606 49.0833 44.75C49.0833 48.2125 50.9796 52.2344 53.9242 56.2594C56.804 60.1906 60.3591 63.6875 62.9676 66.0281C63.3873 66.4137 63.9335 66.6273 64.5 66.6273C65.0665 66.6273 65.6127 66.4137 66.0324 66.0281C68.6409 63.6875 72.1991 60.1937 75.0758 56.2594C78.0204 52.2344 79.9167 48.2125 79.9167 44.75Z" fill="black"/>
<path d="M33.116 76.82V79.052H26.036V83.972H31.556V86.204H26.036V93.5H23.3V76.82H33.116ZM35.4596 86.828C35.4596 85.5 35.7316 84.324 36.2756 83.3C36.8356 82.276 37.5876 81.484 38.5316 80.924C39.4916 80.348 40.5476 80.06 41.6996 80.06C42.7396 80.06 43.6436 80.268 44.4116 80.684C45.1956 81.084 45.8196 81.588 46.2836 82.196V80.276H49.0436V93.5H46.2836V91.532C45.8196 92.156 45.1876 92.676 44.3876 93.092C43.5876 93.508 42.6756 93.716 41.6516 93.716C40.5156 93.716 39.4756 93.428 38.5316 92.852C37.5876 92.26 36.8356 91.444 36.2756 90.404C35.7316 89.348 35.4596 88.156 35.4596 86.828ZM46.2836 86.876C46.2836 85.964 46.0916 85.172 45.7076 84.5C45.3396 83.828 44.8516 83.316 44.2436 82.964C43.6356 82.612 42.9796 82.436 42.2756 82.436C41.5716 82.436 40.9156 82.612 40.3076 82.964C39.6996 83.3 39.2036 83.804 38.8196 84.476C38.4516 85.132 38.2676 85.916 38.2676 86.828C38.2676 87.74 38.4516 88.54 38.8196 89.228C39.2036 89.916 39.6996 90.444 40.3076 90.812C40.9316 91.164 41.5876 91.34 42.2756 91.34C42.9796 91.34 43.6356 91.164 44.2436 90.812C44.8516 90.46 45.3396 89.948 45.7076 89.276C46.0916 88.588 46.2836 87.788 46.2836 86.876ZM58.1572 93.716C57.1172 93.716 56.1812 93.532 55.3492 93.164C54.5332 92.78 53.8852 92.268 53.4052 91.628C52.9252 90.972 52.6692 90.244 52.6372 89.444H55.4692C55.5172 90.004 55.7812 90.476 56.2612 90.86C56.7572 91.228 57.3732 91.412 58.1092 91.412C58.8772 91.412 59.4692 91.268 59.8852 90.98C60.3172 90.676 60.5332 90.292 60.5332 89.828C60.5332 89.332 60.2932 88.964 59.8132 88.724C59.3492 88.484 58.6052 88.22 57.5812 87.932C56.5892 87.66 55.7812 87.396 55.1572 87.14C54.5332 86.884 53.9892 86.492 53.5252 85.964C53.0772 85.436 52.8532 84.74 52.8532 83.876C52.8532 83.172 53.0612 82.532 53.4772 81.956C53.8932 81.364 54.4852 80.9 55.2532 80.564C56.0372 80.228 56.9332 80.06 57.9412 80.06C59.4452 80.06 60.6532 80.444 61.5652 81.212C62.4932 81.964 62.9892 82.996 63.0532 84.308H60.3172C60.2692 83.716 60.0292 83.244 59.5972 82.892C59.1652 82.54 58.5812 82.364 57.8452 82.364C57.1252 82.364 56.5732 82.5 56.1892 82.772C55.8052 83.044 55.6132 83.404 55.6132 83.852C55.6132 84.204 55.7412 84.5 55.9972 84.74C56.2532 84.98 56.5652 85.172 56.9332 85.316C57.3012 85.444 57.8452 85.612 58.5652 85.82C59.5252 86.076 60.3092 86.34 60.9172 86.612C61.5412 86.868 62.0772 87.252 62.5252 87.764C62.9732 88.276 63.2052 88.956 63.2212 89.804C63.2212 90.556 63.0132 91.228 62.5972 91.82C62.1812 92.412 61.5892 92.876 60.8212 93.212C60.0692 93.548 59.1812 93.716 58.1572 93.716ZM72.1295 86.9L78.2255 93.5H74.5295L69.6335 87.812V93.5H66.8975V75.74H69.6335V86.06L74.4335 80.276H78.2255L72.1295 86.9ZM93.0266 86.564C93.0266 87.06 92.9946 87.508 92.9306 87.908H82.8266C82.9066 88.964 83.2986 89.812 84.0026 90.452C84.7066 91.092 85.5706 91.412 86.5946 91.412C88.0666 91.412 89.1066 90.796 89.7146 89.564H92.6666C92.2666 90.78 91.5386 91.78 90.4826 92.564C89.4426 93.332 88.1466 93.716 86.5946 93.716C85.3306 93.716 84.1946 93.436 83.1866 92.876C82.1946 92.3 81.4106 91.5 80.8346 90.476C80.2746 89.436 79.9946 88.236 79.9946 86.876C79.9946 85.516 80.2666 84.324 80.8106 83.3C81.3706 82.26 82.1466 81.46 83.1386 80.9C84.1466 80.34 85.2986 80.06 86.5946 80.06C87.8426 80.06 88.9546 80.332 89.9306 80.876C90.9066 81.42 91.6666 82.188 92.2106 83.18C92.7546 84.156 93.0266 85.284 93.0266 86.564ZM90.1706 85.7C90.1546 84.692 89.7946 83.884 89.0906 83.276C88.3866 82.668 87.5146 82.364 86.4746 82.364C85.5306 82.364 84.7226 82.668 84.0506 83.276C83.3786 83.868 82.9786 84.676 82.8506 85.7H90.1706ZM101.239 93.716C100.199 93.716 99.2631 93.532 98.4311 93.164C97.6151 92.78 96.9671 92.268 96.4871 91.628C96.0071 90.972 95.7511 90.244 95.7191 89.444H98.5511C98.5991 90.004 98.8631 90.476 99.3431 90.86C99.8391 91.228 100.455 91.412 101.191 91.412C101.959 91.412 102.551 91.268 102.967 90.98C103.399 90.676 103.615 90.292 103.615 89.828C103.615 89.332 103.375 88.964 102.895 88.724C102.431 88.484 101.687 88.22 100.663 87.932C99.6711 87.66 98.8631 87.396 98.2391 87.14C97.6151 86.884 97.0711 86.492 96.6071 85.964C96.1591 85.436 95.9351 84.74 95.9351 83.876C95.9351 83.172 96.1431 82.532 96.5591 81.956C96.9751 81.364 97.5671 80.9 98.3351 80.564C99.1191 80.228 100.015 80.06 101.023 80.06C102.527 80.06 103.735 80.444 104.647 81.212C105.575 81.964 106.071 82.996 106.135 84.308H103.399C103.351 83.716 103.111 83.244 102.679 82.892C102.247 82.54 101.663 82.364 100.927 82.364C100.207 82.364 99.6551 82.5 99.2711 82.772C98.8871 83.044 98.6951 83.404 98.6951 83.852C98.6951 84.204 98.8231 84.5 99.0791 84.74C99.3351 84.98 99.6471 85.172 100.015 85.316C100.383 85.444 100.927 85.612 101.647 85.82C102.607 86.076 103.391 86.34 103.999 86.612C104.623 86.868 105.159 87.252 105.607 87.764C106.055 88.276 106.287 88.956 106.303 89.804C106.303 90.556 106.095 91.228 105.679 91.82C105.263 92.412 104.671 92.876 103.903 93.212C103.151 93.548 102.263 93.716 101.239 93.716Z" fill="#29A867"/>
<defs>
<linearGradient id="paint0_linear_31847_21" x1="64.5" y1="9.61125e-07" x2="322.5" y2="-49" gradientUnits="userSpaceOnUse">
<stop stop-color="#29A867"/>
<stop offset="1" stop-color="#00FF7C" stop-opacity="0"/>
<stop offset="1" stop-color="#00FF7C"/>
</linearGradient>
</defs>
</svg>
